<svg aria-hidden="true" style="position: absolute; width: 0; height: 0; overflow: hidden;" version="1.1" xmlns="http://www.w3.org/2000/svg" xmlns:xlink="http://www.w3.org/1999/xlink">
<defs>
<symbol id="icon-tune" viewBox="0 0 21 20">
<path d="M9.444 20v-6.667h2.222v2.222h8.889v2.222h-8.889v2.222h-2.222zM0.556 17.778v-2.222h6.667v2.222h-6.667zM5 13.333v-2.222h-4.444v-2.222h4.444v-2.222h2.222v6.667h-2.222zM9.444 11.111v-2.222h11.111v2.222h-11.111zM13.889 6.667v-6.667h2.222v2.222h4.444v2.222h-4.444v2.222h-2.222zM0.556 4.444v-2.222h11.111v2.222h-11.111z"></path>
</symbol>
<symbol id="icon-arrow-left" viewBox="0 0 24 24">
<path d="M12.707 18.293l-5.293-5.293h11.586c0.552 0 1-0.448 1-1s-0.448-1-1-1h-11.586l5.293-5.293c0.391-0.391 0.391-1.024 0-1.414s-1.024-0.391-1.414 0l-7 7c-0.096 0.096-0.168 0.206-0.217 0.324-0.051 0.122-0.076 0.253-0.076 0.383 0 0.256 0.098 0.512 0.293 0.707l7 7c0.391 0.391 1.024 0.391 1.414 0s0.391-1.024 0-1.414z"></path>
</symbol>
<symbol id="icon-chevron-right" viewBox="0 0 24 24">
<path d="M9.707 18.707l6-6c0.391-0.391 0.391-1.024 0-1.414l-6-6c-0.391-0.391-1.024-0.391-1.414 0s-0.391 1.024 0 1.414l5.293 5.293-5.293 5.293c-0.391 0.391-0.391 1.024 0 1.414s1.024 0.391 1.414 0z"></path>
</symbol>
<symbol id="icon-arrow-right" viewBox="0 0 24 24">
<path d="M11.293 5.707l5.293 5.293h-11.586c-0.552 0-1 0.448-1 1s0.448 1 1 1h11.586l-5.293 5.293c-0.391 0.391-0.391 1.024 0 1.414s1.024 0.391 1.414 0l7-7c0.092-0.092 0.166-0.202 0.217-0.324 0.101-0.245 0.101-0.521 0-0.766-0.049-0.118-0.121-0.228-0.217-0.324l-7-7c-0.391-0.391-1.024-0.391-1.414 0s-0.391 1.024 0 1.414z"></path>
</symbol>
</defs>
</svg>
